<svg width="45" height="45" viewBox="0 0 45 45" fill="none" xmlns="http://www.w3.org/2000/svg">
<g clip-path="url(#clip0_49_3)">
<path d="M13.6607 1.60714L6.42857 18.675C6.32854 18.9185 6.28987 19.1828 6.31591 19.4447C6.34195 19.7067 6.43191 19.9582 6.57794 20.1772C6.72393 20.3962 6.92151 20.576 7.1533 20.7008C7.38505 20.8256 7.64392 20.8915 7.90714 20.8929H16.875L10.4464 43.3929L38.0571 17.2286C38.2866 17.0076 38.4451 16.7234 38.5126 16.4121C38.5801 16.1009 38.5538 15.7766 38.4364 15.4804C38.3194 15.1842 38.1169 14.9295 37.855 14.7486C37.5927 14.5677 37.2828 14.4687 36.9643 14.4643H24.9107L31.3393 1.60714H13.6607Z" stroke="#184181" stroke-width="4" stroke-linecap="round" stroke-linejoin="round"/>
</g>
<defs>
<clipPath id="clip0_49_3">
<rect width="45" height="45" fill="white"/>
</clipPath>
</defs>
</svg>
